<?xml version="1.0" standalone="no"?>
<!DOCTYPE svg PUBLIC "-//W3C//DTD SVG 20010904//EN"
 "http://www.w3.org/TR/2001/REC-SVG-20010904/DTD/svg10.dtd">
<svg version="1.0" xmlns="http://www.w3.org/2000/svg"
 width="310.000000pt" height="310.000000pt" viewBox="0 0 310.000000 310.000000"
 preserveAspectRatio="xMidYMid meet">
<metadata>
Created by potrace 1.14, written by Peter Selinger 2001-2017
</metadata>
<g transform="translate(0.000000,310.000000) scale(0.100000,-0.100000)"
fill="#000000" stroke="none">
<path d="M1975 2490 c-14 -14 -25 -29 -25 -33 0 -4 -20 -50 -45 -101 -25 -52
-45 -101 -45 -109 0 -18 -25 -28 -66 -26 -30 1 -186 -7 -309 -16 -38 -3 -108
-7 -155 -10 -46 -3 -109 -7 -140 -10 -30 -3 -80 -7 -110 -10 -184 -14 -207
-19 -272 -48 -38 -16 -68 -34 -68 -38 0 -5 -5 -9 -10 -9 -6 0 -104 -53 -218
-119 -284 -162 -352 -201 -385 -214 -15 -6 -27 -15 -27 -19 0 -4 -6 -8 -14 -8
-8 0 -16 -7 -20 -15 -10 -26 26 -17 81 20 69 47 57 22 -17 -35 -48 -37 -56
-47 -45 -59 16 -16 29 -10 84 42 22 20 43 37 46 37 6 0 -13 -35 -37 -69 -25
-33 -23 -41 10 -41 24 0 32 10 67 77 45 86 40 82 259 196 88 47 126 62 121 50
-5 -10 -17 -49 -27 -88 -39 -147 -7 -298 116 -546 29 -58 51 -114 50 -125 -3
-19 -7 -69 -19 -249 -14 -223 -14 -232 -1 -251 12 -16 31 -18 167 -20 85 -1
172 2 194 7 41 9 53 23 102 119 10 19 21 37 24 40 3 3 12 16 19 30 7 14 33 55
57 92 l45 68 57 -30 c86 -45 97 -59 116 -147 9 -43 22 -98 29 -123 l12 -45 84
1 c93 1 236 15 300 28 8 1 38 6 65 11 28 4 56 12 63 17 6 6 12 7 12 3 0 -4 7
-2 16 6 9 7 15 26 14 48 -1 20 -1 41 -1 46 1 6 40 12 89 14 48 2 98 4 112 5
43 2 52 39 52 219 -1 198 -3 237 -14 237 -5 0 -6 5 -2 11 3 6 2 14 -4 18 -6 3
-13 19 -16 35 -3 15 -10 34 -16 41 -12 15 -2 44 28 78 8 9 12 17 8 17 -19 0
100 90 126 95 38 9 75 -16 96 -63 17 -38 19 -105 12 -394 -3 -138 14 -192 77
-248 48 -42 99 -58 130 -41 24 12 127 287 143 381 16 98 18 212 4 308 -25 165
-88 290 -229 450 -29 33 -153 134 -202 165 -35 22 -49 41 -79 107 -20 44 -41
80 -45 80 -5 0 -9 5 -9 11 0 18 -32 38 -59 39 -40 0 -65 -40 -85 -141 -5 -23
-10 -26 -43 -23 -21 2 -64 4 -95 5 -56 1 -58 1 -54 27 2 15 6 34 9 42 5 15 18
63 23 90 4 20 6 60 5 87 -3 55 -72 69 -116 23z"/>
</g>
</svg>
